<svg xmlns="http://www.w3.org/2000/svg" xmlns:v="https://svgstorm.com"
viewBox = "0 0 1033 486"
width="1033"
height="486">
<g fill="None" fill-opacity="0.0" stroke="#000000" stroke-opacity="0.00" stroke-width="0.3"><path d="
M 0.00 486.00
L 1033.00 486.00
L 1033.00 0.00
L 0.00 0.00
L 0.00 486.00
M 84.00 205.00
C 91.66 239.98 119.20 267.81 154.67 274.33 C 190.15 280.85 233.50 271.77 254.00 239.00
C 277.67 239.00 301.33 239.00 325.00 239.00
C 323.33 248.44 318.49 258.39 313.69 266.69 C 308.90 275.00 303.47 282.77 296.75 289.75 C 290.04 296.74 284.45 302.82 276.75 308.75 C 269.06 314.68 261.02 319.56 251.92 323.92 C 242.82 328.29 233.30 332.45 222.93 334.93 C 212.55 337.40 200.40 339.46 189.00 340.00 C 177.60 340.53 161.10 339.94 150.00 339.00 C 138.90 338.06 128.98 333.93 118.93 331.07 C 108.87 328.21 100.47 323.22 91.77 318.23 C 83.07 313.24 76.28 307.73 68.75 301.25 C 61.22 294.77 55.98 289.05 49.75 281.25 C 43.52 273.45 38.88 265.94 34.08 256.92 C 29.27 247.91 25.78 239.32 23.01 228.99 C 20.24 218.67 16.92 207.15 16.22 195.78 C 15.52 184.41 15.78 168.08 16.99 156.99 C 18.21 145.91 19.81 134.06 22.99 123.99 C 26.18 113.92 30.52 104.97 34.92 95.92 C 39.33 86.88 44.23 79.90 50.25 72.25 C 56.27 64.60 61.79 57.85 69.25 51.25 C 76.71 44.64 83.70 39.56 92.23 34.23 C 100.76 28.90 109.26 25.67 119.02 22.02 C 128.79 18.38 140.14 15.35 151.00 14.00 C 161.86 12.65 176.61 11.01 188.00 12.00 C 199.39 12.99 211.61 15.19 222.07 17.93 C 232.54 20.66 241.84 24.32 251.08 28.92 C 260.31 33.52 267.25 37.81 275.08 43.92 C 282.92 50.03 289.58 55.39 295.92 63.08 C 302.26 70.77 307.85 76.35 312.77 85.23 C 317.69 94.11 322.18 102.05 325.92 112.08 C 329.66 122.10 332.54 131.95 334.78 143.22 C 337.01 154.49 336.66 167.44 337.00 180.00 C 337.34 192.56 337.09 207.52 322.00 205.00 C 306.91 202.48 297.04 206.11 283.00 205.00 C 268.96 203.89 256.62 205.50 243.00 205.00 C 229.38 204.50 216.40 205.23 203.00 205.00 C 189.60 204.77 177.31 205.11 164.00 205.00 C 150.69 204.89 137.32 205.06 124.00 205.00 C 110.68 204.94 97.33 205.04 84.00 205.00
M 538.00 266.00
C 558.31 270.14 580.97 267.36 603.00 268.00 C 625.03 268.64 648.81 267.52 671.00 268.00
C 671.00 290.33 671.00 312.67 671.00 335.00
C 600.67 335.00 530.33 335.00 460.00 335.00
C 459.87 322.34 460.17 307.44 460.00 295.00 C 459.83 282.56 459.74 267.89 461.78 256.78 C 463.82 245.67 467.26 236.65 472.77 227.77 C 478.28 218.89 483.84 212.92 491.08 206.08 C 498.33 199.24 505.36 193.08 512.75 186.75 C 520.15 180.43 527.66 175.28 535.08 169.08 C 542.50 162.89 549.73 157.39 557.25 151.25 C 564.76 145.10 571.94 139.19 575.92 129.92 C 579.91 120.66 576.29 107.48 569.25 99.75 C 562.20 92.03 555.46 86.96 545.93 83.07 C 536.39 79.19 522.96 75.98 512.00 77.00 C 501.04 78.02 488.88 79.66 479.31 84.31 C 469.73 88.95 463.46 94.16 456.25 102.25 C 449.04 110.33 445.77 117.23 441.68 127.68 C 437.59 138.12 436.65 150.47 437.00 163.00 C 437.35 175.53 436.73 189.80 437.00 203.00 C 437.27 216.20 436.64 230.38 437.00 244.00 C 437.36 257.62 436.28 269.85 437.00 284.00 C 437.72 298.15 435.45 308.77 437.00 324.00 C 438.55 339.23 420.88 334.97 408.00 335.00 C 395.12 335.03 380.07 334.97 367.00 335.00
C 367.00 228.67 367.00 122.33 367.00 16.00
C 390.33 16.00 413.67 16.00 437.00 16.00
C 437.00 26.33 437.00 36.67 437.00 47.00
C 476.15 3.10 545.59 5.06 594.08 27.92 C 642.56 50.78 670.82 118.66 645.08 165.08 C 619.34 211.49 573.04 229.62 538.00 266.00
M 1018.00 205.00
C 935.00 205.00 852.00 205.00 769.00 205.00
C 780.64 282.41 897.20 302.03 939.00 239.00
C 962.58 239.66 986.87 237.67 1010.00 240.00
C 979.58 322.08 886.71 358.94 804.32 331.68 C 721.93 304.42 683.42 211.97 705.33 129.33 C 727.23 46.68 814.71 -3.54 898.01 15.99 C 981.30 35.53 1037.17 119.87 1018.00 205.00
M 342.00 405.00
C 378.40 410.20 372.54 470.41 334.78 466.22 C 297.01 462.04 304.49 399.64 342.00 405.00
M 740.00 449.00
C 743.08 447.46 746.99 448.80 750.00 447.00
C 751.51 453.89 770.56 462.60 774.25 452.25 C 777.93 441.89 761.19 441.10 752.98 438.02 C 744.76 434.95 737.39 423.91 743.77 414.77 C 750.16 405.63 760.70 405.95 770.01 405.99 C 779.32 406.04 790.58 420.89 781.99 423.99 C 773.40 427.10 765.87 406.57 756.31 417.31 C 746.74 428.04 763.98 429.47 772.67 431.33 C 781.36 433.19 790.60 443.81 786.02 454.02 C 781.45 464.24 771.37 466.23 761.00 466.00 C 750.63 465.77 741.03 459.86 740.00 449.00
M 1005.00 424.00
C 993.44 426.44 982.36 410.04 971.31 418.31 C 960.25 426.57 961.28 440.38 967.75 450.25 C 974.23 460.11 994.61 457.70 996.00 445.00
C 990.64 445.81 977.63 442.75 982.78 435.78 C 987.93 428.81 998.93 437.30 1006.00 434.00
C 1006.00 444.33 1006.00 454.67 1006.00 465.00
C 1000.37 465.76 996.03 465.32 996.00 459.00
C 973.09 480.27 945.84 452.12 952.93 426.93 C 960.02 401.74 998.20 397.20 1005.00 424.00
M 45.00 417.00
C 45.00 421.33 45.00 425.67 45.00 430.00
C 54.29 431.94 74.92 423.70 71.00 440.00
C 63.25 439.17 59.12 441.10 51.00 440.00 C 42.88 438.90 44.98 449.00 45.00 455.00
C 54.67 455.00 64.33 455.00 74.00 455.00
C 74.00 458.33 74.00 461.67 74.00 465.00
C 60.67 465.00 47.33 465.00 34.00 465.00
C 34.00 445.67 34.00 426.33 34.00 407.00
C 40.08 408.33 47.01 405.23 53.00 407.00 C 58.99 408.77 67.16 403.59 72.67 407.33 C 78.18 411.07 71.40 419.91 65.00 417.00 C 58.60 414.09 51.47 419.18 45.00 417.00
M 127.00 444.00
C 129.32 432.57 127.34 419.18 128.00 407.00
C 131.67 407.00 135.33 407.00 139.00 407.00
C 139.00 426.33 139.00 445.67 139.00 465.00
C 135.33 465.00 131.67 465.00 128.00 465.00
C 120.79 451.53 110.69 439.36 103.00 426.00
C 100.73 432.33 102.61 440.95 102.00 448.00 C 101.39 455.06 105.08 465.07 96.00 465.00 C 86.91 464.92 89.53 455.29 90.00 448.00 C 90.47 440.72 87.96 432.37 90.00 425.00 C 92.04 417.63 82.99 408.73 95.00 407.00 C 107.02 405.27 111.48 422.60 117.92 430.08 C 124.36 437.56 121.94 436.93 127.00 444.00
M 158.00 465.00
C 158.00 445.67 158.00 426.33 158.00 407.00
C 180.56 403.59 208.67 408.85 208.98 436.02 C 209.28 463.20 180.42 468.67 158.00 465.00
M 301.00 407.00
C 301.00 410.33 301.00 413.67 301.00 417.00
C 295.33 417.00 289.67 417.00 284.00 417.00
C 284.31 426.89 283.58 437.15 284.00 447.00 C 284.42 456.85 286.09 469.24 272.00 465.00
C 272.00 449.00 272.00 433.00 272.00 417.00
C 266.00 417.00 260.00 417.00 254.00 417.00
C 254.00 413.67 254.00 410.33 254.00 407.00
C 269.67 407.00 285.33 407.00 301.00 407.00
M 459.00 407.00
C 462.75 423.87 440.64 414.70 431.00 417.00
C 431.00 421.33 431.00 425.67 431.00 430.00
C 437.73 432.33 456.99 424.74 457.00 435.00 C 457.00 445.27 437.72 437.66 431.00 440.00
C 431.00 445.00 431.00 450.00 431.00 455.00
C 439.97 456.74 446.81 452.67 456.00 455.00 C 465.19 457.33 457.62 468.27 449.00 465.00 C 440.38 461.73 431.38 467.73 423.00 465.00 C 414.62 462.27 420.76 452.35 419.00 444.00 C 417.24 435.65 421.07 427.53 419.00 418.00 C 416.93 408.47 423.62 405.27 433.00 407.00 C 442.38 408.73 449.80 405.70 459.00 407.00
M 511.00 444.00
C 513.32 432.57 511.34 419.18 512.00 407.00
C 515.67 407.00 519.33 407.00 523.00 407.00
C 523.00 426.33 523.00 445.67 523.00 465.00
C 519.33 465.00 515.67 465.00 512.00 465.00
C 503.99 451.88 494.85 438.49 486.00 426.00
C 486.00 439.00 486.00 452.00 486.00 465.00
C 471.88 469.45 474.80 457.87 474.00 449.00 C 473.20 440.13 476.19 428.23 474.00 420.00 C 471.81 411.77 479.77 398.17 487.92 409.08 C 496.06 420.00 503.51 432.60 511.00 444.00
M 571.00 407.00
C 576.61 407.91 581.40 411.73 585.75 416.25 C 590.10 420.76 591.93 427.28 592.00 434.00 C 592.06 440.72 591.86 447.72 587.25 453.25 C 582.64 458.77 581.35 461.13 573.78 463.78 C 566.20 466.42 560.16 463.10 551.00 465.00 C 541.84 466.90 540.77 457.77 542.00 450.00 C 543.23 442.23 541.01 432.89 542.00 426.00 C 542.99 419.11 538.52 406.72 547.00 407.00 C 555.49 407.29 562.82 405.67 571.00 407.00
M 675.00 407.00
C 675.00 410.33 675.00 413.67 675.00 417.00
C 669.33 417.00 663.67 417.00 658.00 417.00
C 658.31 426.89 657.58 437.15 658.00 447.00 C 658.42 456.85 660.09 469.24 646.00 465.00
C 645.87 457.59 646.17 450.43 646.00 443.00 C 645.83 435.57 646.33 428.53 646.00 421.00 C 645.67 413.47 633.14 418.39 628.00 417.00
C 624.57 404.00 637.04 407.05 646.00 407.00 C 654.96 406.96 665.86 407.03 675.00 407.00
M 729.00 407.00
C 729.52 410.57 728.39 413.64 728.00 417.00
C 718.67 417.00 709.33 417.00 700.00 417.00
C 700.00 421.33 700.00 425.67 700.00 430.00
C 709.29 431.94 729.92 423.70 726.00 440.00
C 718.25 439.17 714.11 441.10 706.00 440.00 C 697.89 438.90 699.98 449.00 700.00 455.00
C 709.67 455.00 719.33 455.00 729.00 455.00
C 729.00 458.33 729.00 461.67 729.00 465.00
C 715.67 465.00 702.33 465.00 689.00 465.00
C 689.00 445.67 689.00 426.33 689.00 407.00
C 702.33 407.00 715.67 407.00 729.00 407.00
M 844.00 407.00
C 844.00 410.33 844.00 413.67 844.00 417.00
C 838.84 418.39 826.35 413.46 826.01 421.01 C 825.67 428.56 826.17 435.55 826.00 443.00 C 825.83 450.45 826.13 457.58 826.00 465.00
C 811.92 469.26 813.59 456.84 814.00 447.00 C 814.41 437.16 813.69 426.88 814.00 417.00
C 808.33 417.00 802.67 417.00 797.00 417.00
C 797.00 413.67 797.00 410.33 797.00 407.00
C 812.66 407.00 828.34 407.00 844.00 407.00
M 858.00 465.00
C 858.00 445.67 858.00 426.33 858.00 407.00
C 875.49 401.95 870.00 425.14 870.00 436.00 C 870.00 446.86 875.50 470.03 858.00 465.00
M 925.00 444.00
C 927.32 432.57 925.34 419.18 926.00 407.00
C 929.67 407.00 933.33 407.00 937.00 407.00
C 937.00 426.33 937.00 445.67 937.00 465.00
C 925.16 468.43 921.27 456.40 916.08 448.92 C 910.89 441.44 905.61 433.82 901.00 426.00
C 898.73 432.33 900.61 440.94 900.00 448.00 C 899.39 455.06 903.08 465.07 894.00 465.00 C 884.91 464.93 887.52 455.28 888.00 448.00 C 888.48 440.72 885.96 432.37 888.00 425.00 C 890.04 417.63 880.99 408.73 893.00 407.00 C 905.02 405.27 909.48 422.60 915.92 430.08 C 922.36 437.56 919.94 436.93 925.00 444.00
M 246.00 447.00
C 237.67 447.00 229.33 447.00 221.00 447.00
C 221.00 443.67 221.00 440.33 221.00 437.00
C 230.11 438.75 250.00 431.03 246.00 447.00
M 403.00 437.00
C 407.82 440.41 402.47 449.71 397.00 447.00 C 391.53 444.29 383.41 449.85 378.33 446.67 C 373.25 443.49 378.85 434.22 384.00 437.00 C 389.15 439.78 398.39 433.74 403.00 437.00 Z"/>
</g>
<g fill="None" fill-opacity="0.0" stroke="#FFFFFF" stroke-opacity="0.99" stroke-width="0.3"><path d="
M 84.00 205.00
C 97.33 205.04 110.68 204.94 124.00 205.00 C 137.32 205.06 150.69 204.89 164.00 205.00 C 177.31 205.11 189.60 204.77 203.00 205.00 C 216.40 205.23 229.38 204.50 243.00 205.00 C 256.62 205.50 268.96 203.89 283.00 205.00 C 297.04 206.11 306.91 202.48 322.00 205.00 C 337.09 207.52 337.34 192.56 337.00 180.00 C 336.66 167.44 337.01 154.49 334.78 143.22 C 332.54 131.95 329.66 122.10 325.92 112.08 C 322.18 102.05 317.69 94.11 312.77 85.23 C 307.85 76.35 302.26 70.77 295.92 63.08 C 289.58 55.39 282.92 50.03 275.08 43.92 C 267.25 37.81 260.31 33.52 251.08 28.92 C 241.84 24.32 232.54 20.66 222.07 17.93 C 211.61 15.19 199.39 12.99 188.00 12.00 C 176.61 11.01 161.86 12.65 151.00 14.00 C 140.14 15.35 128.79 18.38 119.02 22.02 C 109.26 25.67 100.76 28.90 92.23 34.23 C 83.70 39.56 76.71 44.64 69.25 51.25 C 61.79 57.85 56.27 64.60 50.25 72.25 C 44.23 79.90 39.33 86.88 34.92 95.92 C 30.52 104.97 26.18 113.92 22.99 123.99 C 19.81 134.06 18.21 145.91 16.99 156.99 C 15.78 168.08 15.52 184.41 16.22 195.78 C 16.92 207.15 20.24 218.67 23.01 228.99 C 25.78 239.32 29.27 247.91 34.08 256.92 C 38.88 265.94 43.52 273.45 49.75 281.25 C 55.98 289.05 61.22 294.77 68.75 301.25 C 76.28 307.73 83.07 313.24 91.77 318.23 C 100.47 323.22 108.87 328.21 118.93 331.07 C 128.98 333.93 138.90 338.06 150.00 339.00 C 161.10 339.94 177.60 340.53 189.00 340.00 C 200.40 339.46 212.55 337.40 222.93 334.93 C 233.30 332.45 242.82 328.29 251.92 323.92 C 261.02 319.56 269.06 314.68 276.75 308.75 C 284.45 302.82 290.04 296.74 296.75 289.75 C 303.47 282.77 308.90 275.00 313.69 266.69 C 318.49 258.39 323.33 248.44 325.00 239.00
C 301.33 239.00 277.67 239.00 254.00 239.00
C 233.50 271.77 190.15 280.85 154.67 274.33 C 119.20 267.81 91.66 239.98 84.00 205.00
M 269.00 147.00
C 207.73 148.88 146.67 146.81 85.00 148.00
C 92.22 104.33 133.36 76.57 176.00 76.00 C 218.64 75.43 260.01 104.11 269.00 147.00 Z"/>
</g>
<g fill="None" fill-opacity="0.0" stroke="#FFFFFF" stroke-opacity="0.99" stroke-width="0.3"><path d="
M 538.00 266.00
C 573.04 229.62 619.34 211.49 645.08 165.08 C 670.82 118.66 642.56 50.78 594.08 27.92 C 545.59 5.06 476.15 3.10 437.00 47.00
C 437.00 36.67 437.00 26.33 437.00 16.00
C 413.67 16.00 390.33 16.00 367.00 16.00
C 367.00 122.33 367.00 228.67 367.00 335.00
C 380.07 334.97 395.12 335.03 408.00 335.00 C 420.88 334.97 438.55 339.23 437.00 324.00 C 435.45 308.77 437.72 298.15 437.00 284.00 C 436.28 269.85 437.36 257.62 437.00 244.00 C 436.64 230.38 437.27 216.20 437.00 203.00 C 436.73 189.80 437.35 175.53 437.00 163.00 C 436.65 150.47 437.59 138.12 441.68 127.68 C 445.77 117.23 449.04 110.33 456.25 102.25 C 463.46 94.16 469.73 88.95 479.31 84.31 C 488.88 79.66 501.04 78.02 512.00 77.00 C 522.96 75.98 536.39 79.19 545.93 83.07 C 555.46 86.96 562.20 92.03 569.25 99.75 C 576.29 107.48 579.91 120.66 575.92 129.92 C 571.94 139.19 564.76 145.10 557.25 151.25 C 549.73 157.39 542.50 162.89 535.08 169.08 C 527.66 175.28 520.15 180.43 512.75 186.75 C 505.36 193.08 498.33 199.24 491.08 206.08 C 483.84 212.92 478.28 218.89 472.77 227.77 C 467.26 236.65 463.82 245.67 461.78 256.78 C 459.74 267.89 459.83 282.56 460.00 295.00 C 460.17 307.44 459.87 322.34 460.00 335.00
C 530.33 335.00 600.67 335.00 671.00 335.00
C 671.00 312.67 671.00 290.33 671.00 268.00
C 648.81 267.52 625.03 268.64 603.00 268.00 C 580.97 267.36 558.31 270.14 538.00 266.00 Z"/>
</g>
<g fill="None" fill-opacity="0.0" stroke="#FFFFFF" stroke-opacity="0.99" stroke-width="0.3"><path d="
M 1018.00 205.00
C 1037.17 119.87 981.30 35.53 898.01 15.99 C 814.71 -3.54 727.23 46.68 705.33 129.33 C 683.42 211.97 721.93 304.42 804.32 331.68 C 886.71 358.94 979.58 322.08 1010.00 240.00
C 986.87 237.67 962.58 239.66 939.00 239.00
C 897.20 302.03 780.64 282.41 769.00 205.00
C 852.00 205.00 935.00 205.00 1018.00 205.00
M 952.00 147.00
C 891.00 147.00 830.00 147.00 769.00 147.00
C 777.07 103.96 817.53 76.33 860.00 76.00 C 902.47 75.67 944.13 103.62 952.00 147.00 Z"/>
</g>
<g fill="None" fill-opacity="0.0" stroke="#000000" stroke-opacity="0.00" stroke-width="0.3"><path d="
M 269.00 147.00
C 260.01 104.11 218.64 75.43 176.00 76.00 C 133.36 76.57 92.22 104.33 85.00 148.00
C 146.67 146.81 207.73 148.88 269.00 147.00 Z"/>
</g>
<g fill="None" fill-opacity="0.0" stroke="#000000" stroke-opacity="0.00" stroke-width="0.3"><path d="
M 952.00 147.00
C 944.13 103.62 902.47 75.67 860.00 76.00 C 817.53 76.33 777.07 103.96 769.00 147.00
C 830.00 147.00 891.00 147.00 952.00 147.00 Z"/>
</g>
<g fill="None" fill-opacity="0.0" stroke="#FFFFFF" stroke-opacity="0.95" stroke-width="0.3"><path d="
M 342.00 405.00
C 304.49 399.64 297.01 462.04 334.78 466.22 C 372.54 470.41 378.40 410.20 342.00 405.00
M 343.00 416.00
C 364.08 421.22 356.54 462.45 334.00 456.00 C 311.46 449.55 320.04 410.31 343.00 416.00 Z"/>
</g>
<g fill="None" fill-opacity="0.0" stroke="#FFFFFF" stroke-opacity="0.95" stroke-width="0.3"><path d="
M 740.00 449.00
C 741.03 459.86 750.63 465.77 761.00 466.00 C 771.37 466.23 781.45 464.24 786.02 454.02 C 790.60 443.81 781.36 433.19 772.67 431.33 C 763.98 429.47 746.74 428.04 756.31 417.31 C 765.87 406.57 773.40 427.10 781.99 423.99 C 790.58 420.89 779.32 406.04 770.01 405.99 C 760.70 405.95 750.16 405.63 743.77 414.77 C 737.39 423.91 744.76 434.95 752.98 438.02 C 761.19 441.10 777.93 441.89 774.25 452.25 C 770.56 462.60 751.51 453.89 750.00 447.00
C 746.99 448.80 743.08 447.46 740.00 449.00 Z"/>
</g>
<g fill="None" fill-opacity="0.0" stroke="#FFFFFF" stroke-opacity="0.96" stroke-width="0.3"><path d="
M 1005.00 424.00
C 998.20 397.20 960.02 401.74 952.93 426.93 C 945.84 452.12 973.09 480.27 996.00 459.00
C 996.03 465.32 1000.37 465.76 1006.00 465.00
C 1006.00 454.67 1006.00 444.33 1006.00 434.00
C 998.93 437.30 987.93 428.81 982.78 435.78 C 977.63 442.75 990.64 445.81 996.00 445.00
C 994.61 457.70 974.23 460.11 967.75 450.25 C 961.28 440.38 960.25 426.57 971.31 418.31 C 982.36 410.04 993.44 426.44 1005.00 424.00 Z"/>
</g>
<g fill="None" fill-opacity="0.0" stroke="#FFFFFF" stroke-opacity="0.99" stroke-width="0.3"><path d="
M 45.00 417.00
C 51.47 419.18 58.60 414.09 65.00 417.00 C 71.40 419.91 78.18 411.07 72.67 407.33 C 67.16 403.59 58.99 408.77 53.00 407.00 C 47.01 405.23 40.08 408.33 34.00 407.00
C 34.00 426.33 34.00 445.67 34.00 465.00
C 47.33 465.00 60.67 465.00 74.00 465.00
C 74.00 461.67 74.00 458.33 74.00 455.00
C 64.33 455.00 54.67 455.00 45.00 455.00
C 44.98 449.00 42.88 438.90 51.00 440.00 C 59.12 441.10 63.25 439.17 71.00 440.00
C 74.92 423.70 54.29 431.94 45.00 430.00
C 45.00 425.67 45.00 421.33 45.00 417.00 Z"/>
</g>
<g fill="None" fill-opacity="0.0" stroke="#FFFFFF" stroke-opacity="0.95" stroke-width="0.3"><path d="
M 127.00 444.00
C 121.94 436.93 124.36 437.56 117.92 430.08 C 111.48 422.60 107.02 405.27 95.00 407.00 C 82.99 408.73 92.04 417.63 90.00 425.00 C 87.96 432.37 90.47 440.72 90.00 448.00 C 89.53 455.29 86.91 464.92 96.00 465.00 C 105.08 465.07 101.39 455.06 102.00 448.00 C 102.61 440.95 100.73 432.33 103.00 426.00
C 110.69 439.36 120.79 451.53 128.00 465.00
C 131.67 465.00 135.33 465.00 139.00 465.00
C 139.00 445.67 139.00 426.33 139.00 407.00
C 135.33 407.00 131.67 407.00 128.00 407.00
C 127.34 419.18 129.32 432.57 127.00 444.00 Z"/>
</g>
<g fill="None" fill-opacity="0.0" stroke="#FFFFFF" stroke-opacity="0.96" stroke-width="0.3"><path d="
M 158.00 465.00
C 180.42 468.67 209.28 463.20 208.98 436.02 C 208.67 408.85 180.56 403.59 158.00 407.00
C 158.00 426.33 158.00 445.67 158.00 465.00
M 170.00 455.00
C 170.00 442.33 170.00 429.67 170.00 417.00
C 184.23 414.17 197.05 421.20 197.00 436.00 C 196.95 450.80 184.00 457.73 170.00 455.00 Z"/>
</g>
<g fill="None" fill-opacity="0.0" stroke="#FFFFFF" stroke-opacity="0.97" stroke-width="0.3"><path d="
M 301.00 407.00
C 285.33 407.00 269.67 407.00 254.00 407.00
C 254.00 410.33 254.00 413.67 254.00 417.00
C 260.00 417.00 266.00 417.00 272.00 417.00
C 272.00 433.00 272.00 449.00 272.00 465.00
C 286.09 469.24 284.42 456.85 284.00 447.00 C 283.58 437.15 284.31 426.89 284.00 417.00
C 289.67 417.00 295.33 417.00 301.00 417.00
C 301.00 413.67 301.00 410.33 301.00 407.00 Z"/>
</g>
<g fill="None" fill-opacity="0.0" stroke="#FFFFFF" stroke-opacity="0.96" stroke-width="0.3"><path d="
M 459.00 407.00
C 449.80 405.70 442.38 408.73 433.00 407.00 C 423.62 405.27 416.93 408.47 419.00 418.00 C 421.07 427.53 417.24 435.65 419.00 444.00 C 420.76 452.35 414.62 462.27 423.00 465.00 C 431.38 467.73 440.38 461.73 449.00 465.00 C 457.62 468.27 465.19 457.33 456.00 455.00 C 446.81 452.67 439.97 456.74 431.00 455.00
C 431.00 450.00 431.00 445.00 431.00 440.00
C 437.72 437.66 457.00 445.27 457.00 435.00 C 456.99 424.74 437.73 432.33 431.00 430.00
C 431.00 425.67 431.00 421.33 431.00 417.00
C 440.64 414.70 462.75 423.87 459.00 407.00 Z"/>
</g>
<g fill="None" fill-opacity="0.0" stroke="#FFFFFF" stroke-opacity="0.95" stroke-width="0.3"><path d="
M 511.00 444.00
C 503.51 432.60 496.06 420.00 487.92 409.08 C 479.77 398.17 471.81 411.77 474.00 420.00 C 476.19 428.23 473.20 440.13 474.00 449.00 C 474.80 457.87 471.88 469.45 486.00 465.00
C 486.00 452.00 486.00 439.00 486.00 426.00
C 494.85 438.49 503.99 451.88 512.00 465.00
C 515.67 465.00 519.33 465.00 523.00 465.00
C 523.00 445.67 523.00 426.33 523.00 407.00
C 519.33 407.00 515.67 407.00 512.00 407.00
C 511.34 419.18 513.32 432.57 511.00 444.00 Z"/>
</g>
<g fill="None" fill-opacity="0.0" stroke="#FFFFFF" stroke-opacity="0.93" stroke-width="0.3"><path d="
M 571.00 407.00
C 562.82 405.67 555.49 407.29 547.00 407.00 C 538.52 406.72 542.99 419.11 542.00 426.00 C 541.01 432.89 543.23 442.23 542.00 450.00 C 540.77 457.77 541.84 466.90 551.00 465.00 C 560.16 463.10 566.20 466.42 573.78 463.78 C 581.35 461.13 582.64 458.77 587.25 453.25 C 591.86 447.72 592.06 440.72 592.00 434.00 C 591.93 427.28 590.10 420.76 585.75 416.25 C 581.40 411.73 576.61 407.91 571.00 407.00
M 554.00 455.00
C 554.00 442.33 554.00 429.67 554.00 417.00
C 568.72 413.94 579.88 421.19 580.00 436.00 C 580.12 450.81 568.48 457.78 554.00 455.00 Z"/>
</g>
<g fill="None" fill-opacity="0.0" stroke="#FFFFFF" stroke-opacity="0.95" stroke-width="0.3"><path d="
M 675.00 407.00
C 665.86 407.03 654.96 406.96 646.00 407.00 C 637.04 407.05 624.57 404.00 628.00 417.00
C 633.14 418.39 645.67 413.47 646.00 421.00 C 646.33 428.53 645.83 435.57 646.00 443.00 C 646.17 450.43 645.87 457.59 646.00 465.00
C 660.09 469.24 658.42 456.85 658.00 447.00 C 657.58 437.15 658.31 426.89 658.00 417.00
C 663.67 417.00 669.33 417.00 675.00 417.00
C 675.00 413.67 675.00 410.33 675.00 407.00 Z"/>
</g>
<g fill="None" fill-opacity="0.0" stroke="#FFFFFF" stroke-opacity="0.97" stroke-width="0.3"><path d="
M 729.00 407.00
C 715.67 407.00 702.33 407.00 689.00 407.00
C 689.00 426.33 689.00 445.67 689.00 465.00
C 702.33 465.00 715.67 465.00 729.00 465.00
C 729.00 461.67 729.00 458.33 729.00 455.00
C 719.33 455.00 709.67 455.00 700.00 455.00
C 699.98 449.00 697.89 438.90 706.00 440.00 C 714.11 441.10 718.25 439.17 726.00 440.00
C 729.92 423.70 709.29 431.94 700.00 430.00
C 700.00 425.67 700.00 421.33 700.00 417.00
C 709.33 417.00 718.67 417.00 728.00 417.00
C 728.39 413.64 729.52 410.57 729.00 407.00 Z"/>
</g>
<g fill="None" fill-opacity="0.0" stroke="#FFFFFF" stroke-opacity="0.95" stroke-width="0.3"><path d="
M 844.00 407.00
C 828.34 407.00 812.66 407.00 797.00 407.00
C 797.00 410.33 797.00 413.67 797.00 417.00
C 802.67 417.00 808.33 417.00 814.00 417.00
C 813.69 426.88 814.41 437.16 814.00 447.00 C 813.59 456.84 811.92 469.26 826.00 465.00
C 826.13 457.58 825.83 450.45 826.00 443.00 C 826.17 435.55 825.67 428.56 826.01 421.01 C 826.35 413.46 838.84 418.39 844.00 417.00
C 844.00 413.67 844.00 410.33 844.00 407.00 Z"/>
</g>
<g fill="None" fill-opacity="0.0" stroke="#FFFFFF" stroke-opacity="0.93" stroke-width="0.3"><path d="
M 858.00 465.00
C 875.50 470.03 870.00 446.86 870.00 436.00 C 870.00 425.14 875.49 401.95 858.00 407.00
C 858.00 426.33 858.00 445.67 858.00 465.00 Z"/>
</g>
<g fill="None" fill-opacity="0.0" stroke="#FFFFFF" stroke-opacity="0.95" stroke-width="0.3"><path d="
M 925.00 444.00
C 919.94 436.93 922.36 437.56 915.92 430.08 C 909.48 422.60 905.02 405.27 893.00 407.00 C 880.99 408.73 890.04 417.63 888.00 425.00 C 885.96 432.37 888.48 440.72 888.00 448.00 C 887.52 455.28 884.91 464.93 894.00 465.00 C 903.08 465.07 899.39 455.06 900.00 448.00 C 900.61 440.94 898.73 432.33 901.00 426.00
C 905.61 433.82 910.89 441.44 916.08 448.92 C 921.27 456.40 925.16 468.43 937.00 465.00
C 937.00 445.67 937.00 426.33 937.00 407.00
C 933.33 407.00 929.67 407.00 926.00 407.00
C 925.34 419.18 927.32 432.57 925.00 444.00 Z"/>
</g>
<g fill="None" fill-opacity="0.0" stroke="#000000" stroke-opacity="0.00" stroke-width="0.3"><path d="
M 343.00 416.00
C 320.04 410.31 311.46 449.55 334.00 456.00 C 356.54 462.45 364.08 421.22 343.00 416.00 Z"/>
</g>
<g fill="None" fill-opacity="0.0" stroke="#000000" stroke-opacity="0.00" stroke-width="0.3"><path d="
M 170.00 455.00
C 184.00 457.73 196.95 450.80 197.00 436.00 C 197.05 421.20 184.23 414.17 170.00 417.00
C 170.00 429.67 170.00 442.33 170.00 455.00 Z"/>
</g>
<g fill="None" fill-opacity="0.0" stroke="#000000" stroke-opacity="0.00" stroke-width="0.3"><path d="
M 554.00 455.00
C 568.48 457.78 580.12 450.81 580.00 436.00 C 579.88 421.19 568.72 413.94 554.00 417.00
C 554.00 429.67 554.00 442.33 554.00 455.00 Z"/>
</g>
<g fill="None" fill-opacity="0.0" stroke="#FFFFFF" stroke-opacity="0.96" stroke-width="0.3"><path d="
M 246.00 447.00
C 250.00 431.03 230.11 438.75 221.00 437.00
C 221.00 440.33 221.00 443.67 221.00 447.00
C 229.33 447.00 237.67 447.00 246.00 447.00 Z"/>
</g>
<g fill="None" fill-opacity="0.0" stroke="#FFFFFF" stroke-opacity="0.93" stroke-width="0.3"><path d="
M 403.00 437.00
C 398.39 433.74 389.15 439.78 384.00 437.00 C 378.85 434.22 373.25 443.49 378.33 446.67 C 383.41 449.85 391.53 444.29 397.00 447.00 C 402.47 449.71 407.82 440.41 403.00 437.00 Z"/>
</g>
<g fill="#000000" fill-opacity="0.00" stroke="None">
<path d="
M 0.00 486.00
L 1033.00 486.00
L 1033.00 0.00
L 0.00 0.00
L 0.00 486.00
M 84.00 205.00
C 91.66 239.98 119.20 267.81 154.67 274.33 C 190.15 280.85 233.50 271.77 254.00 239.00
C 277.67 239.00 301.33 239.00 325.00 239.00
C 323.33 248.44 318.49 258.39 313.69 266.69 C 308.90 275.00 303.47 282.77 296.75 289.75 C 290.04 296.74 284.45 302.82 276.75 308.75 C 269.06 314.68 261.02 319.56 251.92 323.92 C 242.82 328.29 233.30 332.45 222.93 334.93 C 212.55 337.40 200.40 339.46 189.00 340.00 C 177.60 340.53 161.10 339.94 150.00 339.00 C 138.90 338.06 128.98 333.93 118.93 331.07 C 108.87 328.21 100.47 323.22 91.77 318.23 C 83.07 313.24 76.28 307.73 68.75 301.25 C 61.22 294.77 55.98 289.05 49.75 281.25 C 43.52 273.45 38.88 265.94 34.08 256.92 C 29.27 247.91 25.78 239.32 23.01 228.99 C 20.24 218.67 16.92 207.15 16.22 195.78 C 15.52 184.41 15.78 168.08 16.99 156.99 C 18.21 145.91 19.81 134.06 22.99 123.99 C 26.18 113.92 30.52 104.97 34.92 95.92 C 39.33 86.88 44.23 79.90 50.25 72.25 C 56.27 64.60 61.79 57.85 69.25 51.25 C 76.71 44.64 83.70 39.56 92.23 34.23 C 100.76 28.90 109.26 25.67 119.02 22.02 C 128.79 18.38 140.14 15.35 151.00 14.00 C 161.86 12.65 176.61 11.01 188.00 12.00 C 199.39 12.99 211.61 15.19 222.07 17.93 C 232.54 20.66 241.84 24.32 251.08 28.92 C 260.31 33.52 267.25 37.81 275.08 43.92 C 282.92 50.03 289.58 55.39 295.92 63.08 C 302.26 70.77 307.85 76.35 312.77 85.23 C 317.69 94.11 322.18 102.05 325.92 112.08 C 329.66 122.10 332.54 131.95 334.78 143.22 C 337.01 154.49 336.66 167.44 337.00 180.00 C 337.34 192.56 337.09 207.52 322.00 205.00 C 306.91 202.48 297.04 206.11 283.00 205.00 C 268.96 203.89 256.62 205.50 243.00 205.00 C 229.38 204.50 216.40 205.23 203.00 205.00 C 189.60 204.77 177.31 205.11 164.00 205.00 C 150.69 204.89 137.32 205.06 124.00 205.00 C 110.68 204.94 97.33 205.04 84.00 205.00
M 538.00 266.00
C 558.31 270.14 580.97 267.36 603.00 268.00 C 625.03 268.64 648.81 267.52 671.00 268.00
C 671.00 290.33 671.00 312.67 671.00 335.00
C 600.67 335.00 530.33 335.00 460.00 335.00
C 459.87 322.34 460.17 307.44 460.00 295.00 C 459.83 282.56 459.74 267.89 461.78 256.78 C 463.82 245.67 467.26 236.65 472.77 227.77 C 478.28 218.89 483.84 212.92 491.08 206.08 C 498.33 199.24 505.36 193.08 512.75 186.75 C 520.15 180.43 527.66 175.28 535.08 169.08 C 542.50 162.89 549.73 157.39 557.25 151.25 C 564.76 145.10 571.94 139.19 575.92 129.92 C 579.91 120.66 576.29 107.48 569.25 99.75 C 562.20 92.03 555.46 86.96 545.93 83.07 C 536.39 79.19 522.96 75.98 512.00 77.00 C 501.04 78.02 488.88 79.66 479.31 84.31 C 469.73 88.95 463.46 94.16 456.25 102.25 C 449.04 110.33 445.77 117.23 441.68 127.68 C 437.59 138.12 436.65 150.47 437.00 163.00 C 437.35 175.53 436.73 189.80 437.00 203.00 C 437.27 216.20 436.64 230.38 437.00 244.00 C 437.36 257.62 436.28 269.85 437.00 284.00 C 437.72 298.15 435.45 308.77 437.00 324.00 C 438.55 339.23 420.88 334.97 408.00 335.00 C 395.12 335.03 380.07 334.97 367.00 335.00
C 367.00 228.67 367.00 122.33 367.00 16.00
C 390.33 16.00 413.67 16.00 437.00 16.00
C 437.00 26.33 437.00 36.67 437.00 47.00
C 476.15 3.10 545.59 5.06 594.08 27.92 C 642.56 50.78 670.82 118.66 645.08 165.08 C 619.34 211.49 573.04 229.62 538.00 266.00
M 1018.00 205.00
C 935.00 205.00 852.00 205.00 769.00 205.00
C 780.64 282.41 897.20 302.03 939.00 239.00
C 962.58 239.66 986.87 237.67 1010.00 240.00
C 979.58 322.08 886.71 358.94 804.32 331.68 C 721.93 304.42 683.42 211.97 705.33 129.33 C 727.23 46.68 814.71 -3.54 898.01 15.99 C 981.30 35.53 1037.17 119.87 1018.00 205.00
M 342.00 405.00
C 378.40 410.20 372.54 470.41 334.78 466.22 C 297.01 462.04 304.49 399.64 342.00 405.00
M 740.00 449.00
C 743.08 447.46 746.99 448.80 750.00 447.00
C 751.51 453.89 770.56 462.60 774.25 452.25 C 777.93 441.89 761.19 441.10 752.98 438.02 C 744.76 434.95 737.39 423.91 743.77 414.77 C 750.16 405.63 760.70 405.95 770.01 405.99 C 779.32 406.04 790.58 420.89 781.99 423.99 C 773.40 427.10 765.87 406.57 756.31 417.31 C 746.74 428.04 763.98 429.47 772.67 431.33 C 781.36 433.19 790.60 443.81 786.02 454.02 C 781.45 464.24 771.37 466.23 761.00 466.00 C 750.63 465.77 741.03 459.86 740.00 449.00
M 1005.00 424.00
C 993.44 426.44 982.36 410.04 971.31 418.31 C 960.25 426.57 961.28 440.38 967.75 450.25 C 974.23 460.11 994.61 457.70 996.00 445.00
C 990.64 445.81 977.63 442.75 982.78 435.78 C 987.93 428.81 998.93 437.30 1006.00 434.00
C 1006.00 444.33 1006.00 454.67 1006.00 465.00
C 1000.37 465.76 996.03 465.32 996.00 459.00
C 973.09 480.27 945.84 452.12 952.93 426.93 C 960.02 401.74 998.20 397.20 1005.00 424.00
M 45.00 417.00
C 45.00 421.33 45.00 425.67 45.00 430.00
C 54.29 431.94 74.92 423.70 71.00 440.00
C 63.25 439.17 59.12 441.10 51.00 440.00 C 42.88 438.90 44.98 449.00 45.00 455.00
C 54.67 455.00 64.33 455.00 74.00 455.00
C 74.00 458.33 74.00 461.67 74.00 465.00
C 60.67 465.00 47.33 465.00 34.00 465.00
C 34.00 445.67 34.00 426.33 34.00 407.00
C 40.08 408.33 47.01 405.23 53.00 407.00 C 58.99 408.77 67.16 403.59 72.67 407.33 C 78.18 411.07 71.40 419.91 65.00 417.00 C 58.60 414.09 51.47 419.18 45.00 417.00
M 127.00 444.00
C 129.32 432.57 127.34 419.18 128.00 407.00
C 131.67 407.00 135.33 407.00 139.00 407.00
C 139.00 426.33 139.00 445.67 139.00 465.00
C 135.33 465.00 131.67 465.00 128.00 465.00
C 120.79 451.53 110.69 439.36 103.00 426.00
C 100.73 432.33 102.61 440.95 102.00 448.00 C 101.39 455.06 105.08 465.07 96.00 465.00 C 86.91 464.92 89.53 455.29 90.00 448.00 C 90.47 440.72 87.96 432.37 90.00 425.00 C 92.04 417.63 82.99 408.73 95.00 407.00 C 107.02 405.27 111.48 422.60 117.92 430.08 C 124.36 437.56 121.94 436.93 127.00 444.00
M 158.00 465.00
C 158.00 445.67 158.00 426.33 158.00 407.00
C 180.56 403.59 208.67 408.85 208.98 436.02 C 209.28 463.20 180.42 468.67 158.00 465.00
M 301.00 407.00
C 301.00 410.33 301.00 413.67 301.00 417.00
C 295.33 417.00 289.67 417.00 284.00 417.00
C 284.31 426.89 283.58 437.15 284.00 447.00 C 284.42 456.85 286.09 469.24 272.00 465.00
C 272.00 449.00 272.00 433.00 272.00 417.00
C 266.00 417.00 260.00 417.00 254.00 417.00
C 254.00 413.67 254.00 410.33 254.00 407.00
C 269.67 407.00 285.33 407.00 301.00 407.00
M 459.00 407.00
C 462.75 423.87 440.64 414.70 431.00 417.00
C 431.00 421.33 431.00 425.67 431.00 430.00
C 437.73 432.33 456.99 424.74 457.00 435.00 C 457.00 445.27 437.72 437.66 431.00 440.00
C 431.00 445.00 431.00 450.00 431.00 455.00
C 439.97 456.74 446.81 452.67 456.00 455.00 C 465.19 457.33 457.62 468.27 449.00 465.00 C 440.38 461.73 431.38 467.73 423.00 465.00 C 414.62 462.27 420.76 452.35 419.00 444.00 C 417.24 435.65 421.07 427.53 419.00 418.00 C 416.93 408.47 423.62 405.27 433.00 407.00 C 442.38 408.73 449.80 405.70 459.00 407.00
M 511.00 444.00
C 513.32 432.57 511.34 419.18 512.00 407.00
C 515.67 407.00 519.33 407.00 523.00 407.00
C 523.00 426.33 523.00 445.67 523.00 465.00
C 519.33 465.00 515.67 465.00 512.00 465.00
C 503.99 451.88 494.85 438.49 486.00 426.00
C 486.00 439.00 486.00 452.00 486.00 465.00
C 471.88 469.45 474.80 457.87 474.00 449.00 C 473.20 440.13 476.19 428.23 474.00 420.00 C 471.81 411.77 479.77 398.17 487.92 409.08 C 496.06 420.00 503.51 432.60 511.00 444.00
M 571.00 407.00
C 576.61 407.91 581.40 411.73 585.75 416.25 C 590.10 420.76 591.93 427.28 592.00 434.00 C 592.06 440.72 591.86 447.72 587.25 453.25 C 582.64 458.77 581.35 461.13 573.78 463.78 C 566.20 466.42 560.16 463.10 551.00 465.00 C 541.84 466.90 540.77 457.77 542.00 450.00 C 543.23 442.23 541.01 432.89 542.00 426.00 C 542.99 419.11 538.52 406.72 547.00 407.00 C 555.49 407.29 562.82 405.67 571.00 407.00
M 675.00 407.00
C 675.00 410.33 675.00 413.67 675.00 417.00
C 669.33 417.00 663.67 417.00 658.00 417.00
C 658.31 426.89 657.58 437.15 658.00 447.00 C 658.42 456.85 660.09 469.24 646.00 465.00
C 645.87 457.59 646.17 450.43 646.00 443.00 C 645.83 435.57 646.33 428.53 646.00 421.00 C 645.67 413.47 633.14 418.39 628.00 417.00
C 624.57 404.00 637.04 407.05 646.00 407.00 C 654.96 406.96 665.86 407.03 675.00 407.00
M 729.00 407.00
C 729.52 410.57 728.39 413.64 728.00 417.00
C 718.67 417.00 709.33 417.00 700.00 417.00
C 700.00 421.33 700.00 425.67 700.00 430.00
C 709.29 431.94 729.92 423.70 726.00 440.00
C 718.25 439.17 714.11 441.10 706.00 440.00 C 697.89 438.90 699.98 449.00 700.00 455.00
C 709.67 455.00 719.33 455.00 729.00 455.00
C 729.00 458.33 729.00 461.67 729.00 465.00
C 715.67 465.00 702.33 465.00 689.00 465.00
C 689.00 445.67 689.00 426.33 689.00 407.00
C 702.33 407.00 715.67 407.00 729.00 407.00
M 844.00 407.00
C 844.00 410.33 844.00 413.67 844.00 417.00
C 838.84 418.39 826.35 413.46 826.01 421.01 C 825.67 428.56 826.17 435.55 826.00 443.00 C 825.83 450.45 826.13 457.58 826.00 465.00
C 811.92 469.26 813.59 456.84 814.00 447.00 C 814.41 437.16 813.69 426.88 814.00 417.00
C 808.33 417.00 802.67 417.00 797.00 417.00
C 797.00 413.67 797.00 410.33 797.00 407.00
C 812.66 407.00 828.34 407.00 844.00 407.00
M 858.00 465.00
C 858.00 445.67 858.00 426.33 858.00 407.00
C 875.49 401.95 870.00 425.14 870.00 436.00 C 870.00 446.86 875.50 470.03 858.00 465.00
M 925.00 444.00
C 927.32 432.57 925.34 419.18 926.00 407.00
C 929.67 407.00 933.33 407.00 937.00 407.00
C 937.00 426.33 937.00 445.67 937.00 465.00
C 925.16 468.43 921.27 456.40 916.08 448.92 C 910.89 441.44 905.61 433.82 901.00 426.00
C 898.73 432.33 900.61 440.94 900.00 448.00 C 899.39 455.06 903.08 465.07 894.00 465.00 C 884.91 464.93 887.52 455.28 888.00 448.00 C 888.48 440.72 885.96 432.37 888.00 425.00 C 890.04 417.63 880.99 408.73 893.00 407.00 C 905.02 405.27 909.48 422.60 915.92 430.08 C 922.36 437.56 919.94 436.93 925.00 444.00
M 246.00 447.00
C 237.67 447.00 229.33 447.00 221.00 447.00
C 221.00 443.67 221.00 440.33 221.00 437.00
C 230.11 438.75 250.00 431.03 246.00 447.00
M 403.00 437.00
C 407.82 440.41 402.47 449.71 397.00 447.00 C 391.53 444.29 383.41 449.85 378.33 446.67 C 373.25 443.49 378.85 434.22 384.00 437.00 C 389.15 439.78 398.39 433.74 403.00 437.00 Z"/>
</g>
<g fill="#FFFFFF" fill-opacity="0.99" stroke="None">
<path d="
M 84.00 205.00
C 97.33 205.04 110.68 204.94 124.00 205.00 C 137.32 205.06 150.69 204.89 164.00 205.00 C 177.31 205.11 189.60 204.77 203.00 205.00 C 216.40 205.23 229.38 204.50 243.00 205.00 C 256.62 205.50 268.96 203.89 283.00 205.00 C 297.04 206.11 306.91 202.48 322.00 205.00 C 337.09 207.52 337.34 192.56 337.00 180.00 C 336.66 167.44 337.01 154.49 334.78 143.22 C 332.54 131.95 329.66 122.10 325.92 112.08 C 322.18 102.05 317.69 94.11 312.77 85.23 C 307.85 76.35 302.26 70.77 295.92 63.08 C 289.58 55.39 282.92 50.03 275.08 43.92 C 267.25 37.81 260.31 33.52 251.08 28.92 C 241.84 24.32 232.54 20.66 222.07 17.93 C 211.61 15.19 199.39 12.99 188.00 12.00 C 176.61 11.01 161.86 12.65 151.00 14.00 C 140.14 15.35 128.79 18.38 119.02 22.02 C 109.26 25.67 100.76 28.90 92.23 34.23 C 83.70 39.56 76.71 44.64 69.25 51.25 C 61.79 57.85 56.27 64.60 50.25 72.25 C 44.23 79.90 39.33 86.88 34.92 95.92 C 30.52 104.97 26.18 113.92 22.99 123.99 C 19.81 134.06 18.21 145.91 16.99 156.99 C 15.78 168.08 15.52 184.41 16.22 195.78 C 16.92 207.15 20.24 218.67 23.01 228.99 C 25.78 239.32 29.27 247.91 34.08 256.92 C 38.88 265.94 43.52 273.45 49.75 281.25 C 55.98 289.05 61.22 294.77 68.75 301.25 C 76.28 307.73 83.07 313.24 91.77 318.23 C 100.47 323.22 108.87 328.21 118.93 331.07 C 128.98 333.93 138.90 338.06 150.00 339.00 C 161.10 339.94 177.60 340.53 189.00 340.00 C 200.40 339.46 212.55 337.40 222.93 334.93 C 233.30 332.45 242.82 328.29 251.92 323.92 C 261.02 319.56 269.06 314.68 276.75 308.75 C 284.45 302.82 290.04 296.74 296.75 289.75 C 303.47 282.77 308.90 275.00 313.69 266.69 C 318.49 258.39 323.33 248.44 325.00 239.00
C 301.33 239.00 277.67 239.00 254.00 239.00
C 233.50 271.77 190.15 280.85 154.67 274.33 C 119.20 267.81 91.66 239.98 84.00 205.00
M 269.00 147.00
C 207.73 148.88 146.67 146.81 85.00 148.00
C 92.22 104.33 133.36 76.57 176.00 76.00 C 218.64 75.43 260.01 104.11 269.00 147.00 Z"/>
</g>
<g fill="#FFFFFF" fill-opacity="0.99" stroke="None">
<path d="
M 538.00 266.00
C 573.04 229.62 619.34 211.49 645.08 165.08 C 670.82 118.66 642.56 50.78 594.08 27.92 C 545.59 5.06 476.15 3.10 437.00 47.00
C 437.00 36.67 437.00 26.33 437.00 16.00
C 413.67 16.00 390.33 16.00 367.00 16.00
C 367.00 122.33 367.00 228.67 367.00 335.00
C 380.07 334.97 395.12 335.03 408.00 335.00 C 420.88 334.97 438.55 339.23 437.00 324.00 C 435.45 308.77 437.72 298.15 437.00 284.00 C 436.28 269.85 437.36 257.62 437.00 244.00 C 436.64 230.38 437.27 216.20 437.00 203.00 C 436.73 189.80 437.35 175.53 437.00 163.00 C 436.65 150.47 437.59 138.12 441.68 127.68 C 445.77 117.23 449.04 110.33 456.25 102.25 C 463.46 94.16 469.73 88.95 479.31 84.31 C 488.88 79.66 501.04 78.02 512.00 77.00 C 522.96 75.98 536.39 79.19 545.93 83.07 C 555.46 86.96 562.20 92.03 569.25 99.75 C 576.29 107.48 579.91 120.66 575.92 129.92 C 571.94 139.19 564.76 145.10 557.25 151.25 C 549.73 157.39 542.50 162.89 535.08 169.08 C 527.66 175.28 520.15 180.43 512.75 186.75 C 505.36 193.08 498.33 199.24 491.08 206.08 C 483.84 212.92 478.28 218.89 472.77 227.77 C 467.26 236.65 463.82 245.67 461.78 256.78 C 459.74 267.89 459.83 282.56 460.00 295.00 C 460.17 307.44 459.87 322.34 460.00 335.00
C 530.33 335.00 600.67 335.00 671.00 335.00
C 671.00 312.67 671.00 290.33 671.00 268.00
C 648.81 267.52 625.03 268.64 603.00 268.00 C 580.97 267.36 558.31 270.14 538.00 266.00 Z"/>
</g>
<g fill="#FFFFFF" fill-opacity="0.99" stroke="None">
<path d="
M 1018.00 205.00
C 1037.17 119.87 981.30 35.53 898.01 15.99 C 814.71 -3.54 727.23 46.68 705.33 129.33 C 683.42 211.97 721.93 304.42 804.32 331.68 C 886.71 358.94 979.58 322.08 1010.00 240.00
C 986.87 237.67 962.58 239.66 939.00 239.00
C 897.20 302.03 780.64 282.41 769.00 205.00
C 852.00 205.00 935.00 205.00 1018.00 205.00
M 952.00 147.00
C 891.00 147.00 830.00 147.00 769.00 147.00
C 777.07 103.96 817.53 76.33 860.00 76.00 C 902.47 75.67 944.13 103.62 952.00 147.00 Z"/>
</g>
<g fill="#000000" fill-opacity="0.00" stroke="None">
<path d="
M 269.00 147.00
C 260.01 104.11 218.64 75.43 176.00 76.00 C 133.36 76.57 92.22 104.33 85.00 148.00
C 146.67 146.81 207.73 148.88 269.00 147.00 Z"/>
</g>
<g fill="#000000" fill-opacity="0.00" stroke="None">
<path d="
M 952.00 147.00
C 944.13 103.62 902.47 75.67 860.00 76.00 C 817.53 76.33 777.07 103.96 769.00 147.00
C 830.00 147.00 891.00 147.00 952.00 147.00 Z"/>
</g>
<g fill="#FFFFFF" fill-opacity="0.95" stroke="None">
<path d="
M 342.00 405.00
C 304.49 399.64 297.01 462.04 334.78 466.22 C 372.54 470.41 378.40 410.20 342.00 405.00
M 343.00 416.00
C 364.08 421.22 356.54 462.45 334.00 456.00 C 311.46 449.55 320.04 410.31 343.00 416.00 Z"/>
</g>
<g fill="#FFFFFF" fill-opacity="0.95" stroke="None">
<path d="
M 740.00 449.00
C 741.03 459.86 750.63 465.77 761.00 466.00 C 771.37 466.23 781.45 464.24 786.02 454.02 C 790.60 443.81 781.36 433.19 772.67 431.33 C 763.98 429.47 746.74 428.04 756.31 417.31 C 765.87 406.57 773.40 427.10 781.99 423.99 C 790.58 420.89 779.32 406.04 770.01 405.99 C 760.70 405.95 750.16 405.63 743.77 414.77 C 737.39 423.91 744.76 434.95 752.98 438.02 C 761.19 441.10 777.93 441.89 774.25 452.25 C 770.56 462.60 751.51 453.89 750.00 447.00
C 746.99 448.80 743.08 447.46 740.00 449.00 Z"/>
</g>
<g fill="#FFFFFF" fill-opacity="0.96" stroke="None">
<path d="
M 1005.00 424.00
C 998.20 397.20 960.02 401.74 952.93 426.93 C 945.84 452.12 973.09 480.27 996.00 459.00
C 996.03 465.32 1000.37 465.76 1006.00 465.00
C 1006.00 454.67 1006.00 444.33 1006.00 434.00
C 998.93 437.30 987.93 428.81 982.78 435.78 C 977.63 442.75 990.64 445.81 996.00 445.00
C 994.61 457.70 974.23 460.11 967.75 450.25 C 961.28 440.38 960.25 426.57 971.31 418.31 C 982.36 410.04 993.44 426.44 1005.00 424.00 Z"/>
</g>
<g fill="#FFFFFF" fill-opacity="0.99" stroke="None">
<path d="
M 45.00 417.00
C 51.47 419.18 58.60 414.09 65.00 417.00 C 71.40 419.91 78.18 411.07 72.67 407.33 C 67.16 403.59 58.99 408.77 53.00 407.00 C 47.01 405.23 40.08 408.33 34.00 407.00
C 34.00 426.33 34.00 445.67 34.00 465.00
C 47.33 465.00 60.67 465.00 74.00 465.00
C 74.00 461.67 74.00 458.33 74.00 455.00
C 64.33 455.00 54.67 455.00 45.00 455.00
C 44.98 449.00 42.88 438.90 51.00 440.00 C 59.12 441.10 63.25 439.17 71.00 440.00
C 74.92 423.70 54.29 431.94 45.00 430.00
C 45.00 425.67 45.00 421.33 45.00 417.00 Z"/>
</g>
<g fill="#FFFFFF" fill-opacity="0.95" stroke="None">
<path d="
M 127.00 444.00
C 121.94 436.93 124.36 437.56 117.92 430.08 C 111.48 422.60 107.02 405.27 95.00 407.00 C 82.99 408.73 92.04 417.63 90.00 425.00 C 87.96 432.37 90.47 440.72 90.00 448.00 C 89.53 455.29 86.91 464.92 96.00 465.00 C 105.08 465.07 101.39 455.06 102.00 448.00 C 102.61 440.95 100.73 432.33 103.00 426.00
C 110.69 439.36 120.79 451.53 128.00 465.00
C 131.67 465.00 135.33 465.00 139.00 465.00
C 139.00 445.67 139.00 426.33 139.00 407.00
C 135.33 407.00 131.67 407.00 128.00 407.00
C 127.34 419.18 129.32 432.57 127.00 444.00 Z"/>
</g>
<g fill="#FFFFFF" fill-opacity="0.96" stroke="None">
<path d="
M 158.00 465.00
C 180.42 468.67 209.28 463.20 208.98 436.02 C 208.67 408.85 180.56 403.59 158.00 407.00
C 158.00 426.33 158.00 445.67 158.00 465.00
M 170.00 455.00
C 170.00 442.33 170.00 429.67 170.00 417.00
C 184.23 414.17 197.05 421.20 197.00 436.00 C 196.95 450.80 184.00 457.73 170.00 455.00 Z"/>
</g>
<g fill="#FFFFFF" fill-opacity="0.97" stroke="None">
<path d="
M 301.00 407.00
C 285.33 407.00 269.67 407.00 254.00 407.00
C 254.00 410.33 254.00 413.67 254.00 417.00
C 260.00 417.00 266.00 417.00 272.00 417.00
C 272.00 433.00 272.00 449.00 272.00 465.00
C 286.09 469.24 284.42 456.85 284.00 447.00 C 283.58 437.15 284.31 426.89 284.00 417.00
C 289.67 417.00 295.33 417.00 301.00 417.00
C 301.00 413.67 301.00 410.33 301.00 407.00 Z"/>
</g>
<g fill="#FFFFFF" fill-opacity="0.96" stroke="None">
<path d="
M 459.00 407.00
C 449.80 405.70 442.38 408.73 433.00 407.00 C 423.62 405.27 416.93 408.47 419.00 418.00 C 421.07 427.53 417.24 435.65 419.00 444.00 C 420.76 452.35 414.62 462.27 423.00 465.00 C 431.38 467.73 440.38 461.73 449.00 465.00 C 457.62 468.27 465.19 457.33 456.00 455.00 C 446.81 452.67 439.97 456.74 431.00 455.00
C 431.00 450.00 431.00 445.00 431.00 440.00
C 437.72 437.66 457.00 445.27 457.00 435.00 C 456.99 424.74 437.73 432.33 431.00 430.00
C 431.00 425.67 431.00 421.33 431.00 417.00
C 440.64 414.70 462.75 423.87 459.00 407.00 Z"/>
</g>
<g fill="#FFFFFF" fill-opacity="0.95" stroke="None">
<path d="
M 511.00 444.00
C 503.51 432.60 496.06 420.00 487.92 409.08 C 479.77 398.17 471.81 411.77 474.00 420.00 C 476.19 428.23 473.20 440.13 474.00 449.00 C 474.80 457.87 471.88 469.45 486.00 465.00
C 486.00 452.00 486.00 439.00 486.00 426.00
C 494.85 438.49 503.99 451.88 512.00 465.00
C 515.67 465.00 519.33 465.00 523.00 465.00
C 523.00 445.67 523.00 426.33 523.00 407.00
C 519.33 407.00 515.67 407.00 512.00 407.00
C 511.34 419.18 513.32 432.57 511.00 444.00 Z"/>
</g>
<g fill="#FFFFFF" fill-opacity="0.93" stroke="None">
<path d="
M 571.00 407.00
C 562.82 405.67 555.49 407.29 547.00 407.00 C 538.52 406.72 542.99 419.11 542.00 426.00 C 541.01 432.89 543.23 442.23 542.00 450.00 C 540.77 457.77 541.84 466.90 551.00 465.00 C 560.16 463.10 566.20 466.42 573.78 463.78 C 581.35 461.13 582.64 458.77 587.25 453.25 C 591.86 447.72 592.06 440.72 592.00 434.00 C 591.93 427.28 590.10 420.76 585.75 416.25 C 581.40 411.73 576.61 407.91 571.00 407.00
M 554.00 455.00
C 554.00 442.33 554.00 429.67 554.00 417.00
C 568.72 413.94 579.88 421.19 580.00 436.00 C 580.12 450.81 568.48 457.78 554.00 455.00 Z"/>
</g>
<g fill="#FFFFFF" fill-opacity="0.95" stroke="None">
<path d="
M 675.00 407.00
C 665.86 407.03 654.96 406.96 646.00 407.00 C 637.04 407.05 624.57 404.00 628.00 417.00
C 633.14 418.39 645.67 413.47 646.00 421.00 C 646.33 428.53 645.83 435.57 646.00 443.00 C 646.17 450.43 645.87 457.59 646.00 465.00
C 660.09 469.24 658.42 456.85 658.00 447.00 C 657.58 437.15 658.31 426.89 658.00 417.00
C 663.67 417.00 669.33 417.00 675.00 417.00
C 675.00 413.67 675.00 410.33 675.00 407.00 Z"/>
</g>
<g fill="#FFFFFF" fill-opacity="0.97" stroke="None">
<path d="
M 729.00 407.00
C 715.67 407.00 702.33 407.00 689.00 407.00
C 689.00 426.33 689.00 445.67 689.00 465.00
C 702.33 465.00 715.67 465.00 729.00 465.00
C 729.00 461.67 729.00 458.33 729.00 455.00
C 719.33 455.00 709.67 455.00 700.00 455.00
C 699.98 449.00 697.89 438.90 706.00 440.00 C 714.11 441.10 718.25 439.17 726.00 440.00
C 729.92 423.70 709.29 431.94 700.00 430.00
C 700.00 425.67 700.00 421.33 700.00 417.00
C 709.33 417.00 718.67 417.00 728.00 417.00
C 728.39 413.64 729.52 410.57 729.00 407.00 Z"/>
</g>
<g fill="#FFFFFF" fill-opacity="0.95" stroke="None">
<path d="
M 844.00 407.00
C 828.34 407.00 812.66 407.00 797.00 407.00
C 797.00 410.33 797.00 413.67 797.00 417.00
C 802.67 417.00 808.33 417.00 814.00 417.00
C 813.69 426.88 814.41 437.16 814.00 447.00 C 813.59 456.84 811.92 469.26 826.00 465.00
C 826.13 457.58 825.83 450.45 826.00 443.00 C 826.17 435.55 825.67 428.56 826.01 421.01 C 826.35 413.46 838.84 418.39 844.00 417.00
C 844.00 413.67 844.00 410.33 844.00 407.00 Z"/>
</g>
<g fill="#FFFFFF" fill-opacity="0.93" stroke="None">
<path d="
M 858.00 465.00
C 875.50 470.03 870.00 446.86 870.00 436.00 C 870.00 425.14 875.49 401.95 858.00 407.00
C 858.00 426.33 858.00 445.67 858.00 465.00 Z"/>
</g>
<g fill="#FFFFFF" fill-opacity="0.95" stroke="None">
<path d="
M 925.00 444.00
C 919.94 436.93 922.36 437.56 915.92 430.08 C 909.48 422.60 905.02 405.27 893.00 407.00 C 880.99 408.73 890.04 417.63 888.00 425.00 C 885.96 432.37 888.48 440.72 888.00 448.00 C 887.52 455.28 884.91 464.93 894.00 465.00 C 903.08 465.07 899.39 455.06 900.00 448.00 C 900.61 440.94 898.73 432.33 901.00 426.00
C 905.61 433.82 910.89 441.44 916.08 448.92 C 921.27 456.40 925.16 468.43 937.00 465.00
C 937.00 445.67 937.00 426.33 937.00 407.00
C 933.33 407.00 929.67 407.00 926.00 407.00
C 925.34 419.18 927.32 432.57 925.00 444.00 Z"/>
</g>
<g fill="#000000" fill-opacity="0.00" stroke="None">
<path d="
M 343.00 416.00
C 320.04 410.31 311.46 449.55 334.00 456.00 C 356.54 462.45 364.08 421.22 343.00 416.00 Z"/>
</g>
<g fill="#000000" fill-opacity="0.00" stroke="None">
<path d="
M 170.00 455.00
C 184.00 457.73 196.95 450.80 197.00 436.00 C 197.05 421.20 184.23 414.17 170.00 417.00
C 170.00 429.67 170.00 442.33 170.00 455.00 Z"/>
</g>
<g fill="#000000" fill-opacity="0.00" stroke="None">
<path d="
M 554.00 455.00
C 568.48 457.78 580.12 450.81 580.00 436.00 C 579.88 421.19 568.72 413.94 554.00 417.00
C 554.00 429.67 554.00 442.33 554.00 455.00 Z"/>
</g>
<g fill="#FFFFFF" fill-opacity="0.96" stroke="None">
<path d="
M 246.00 447.00
C 250.00 431.03 230.11 438.75 221.00 437.00
C 221.00 440.33 221.00 443.67 221.00 447.00
C 229.33 447.00 237.67 447.00 246.00 447.00 Z"/>
</g>
<g fill="#FFFFFF" fill-opacity="0.93" stroke="None">
<path d="
M 403.00 437.00
C 398.39 433.74 389.15 439.78 384.00 437.00 C 378.85 434.22 373.25 443.49 378.33 446.67 C 383.41 449.85 391.53 444.29 397.00 447.00 C 402.47 449.71 407.82 440.41 403.00 437.00 Z"/>
</g>
</svg>
